<?xml version="1.0" encoding="UTF-8" standalone="no"?>
<!DOCTYPE svg PUBLIC "-//W3C//DTD SVG 1.1//EN" "http://www.w3.org/Graphics/SVG/1.1/DTD/svg11.dtd">
<svg version="1.1" xmlns="http://www.w3.org/2000/svg" xmlns:xlink="http://www.w3.org/1999/xlink" preserveAspectRatio="xMidYMid meet" viewBox="0 0 640 640" width="640" height="640"><defs><path d="M-15.19 -10.56L653.33 -10.56L653.33 654.26L-15.19 654.26L-15.19 -10.56Z" id="jkrVVPQm7"></path><path d="M197.79 241.3L164.22 241.3L164.22 412.5L181.15 412.5" id="e1VSwPVdqm"></path><path d="M179.44 241.3L179.44 150" id="c9fEfG3iRS"></path><path d="M191.01 283.15C191.01 209.61 250.62 150 324.16 150C324.13 150 323.88 150 323.85 150C397.39 150 457 209.61 457 283.15" id="aczpZKeo7"></path><path d="M190.85 283.15L179.44 435.33L289.77 500L358.25 500L470 435.33L457.16 283.15" id="c3FhUaXFtD"></path><path d="M191.9 267.93L456.09 267.93" id="du3kHr23x"></path><path d="M358.25 500C358.25 404.13 358.25 350.87 358.25 340.22C358.25 340.22 405 324.83 435.22 313.15C435.05 311.65 434.16 304.19 432.55 290.76L428.35 290.76L324.01 290.76L217.88 290.76L213.68 290.76C212.61 304.19 212.02 311.65 211.9 313.15C242.12 324.83 289.77 340.22 289.77 340.22C289.77 350.87 289.77 404.13 289.77 500" id="b8q41em40X"></path><path d="M187.04 334.1C234.52 358.84 266.94 408.52 266.94 465.76C266.94 467.15 266.94 474.1 266.94 486.62" id="a1wlLdW9e6"></path><path d="M460.98 336.79C413.49 361.54 381.07 408.52 381.07 465.76C381.07 467.16 381.07 474.17 381.07 486.79" id="aabFYA4x0"></path><path d="M363.32 200.72L383.29 224.5" id="b1qAZ2lKPY"></path><path d="M346.83 214.67L346.83 233.7" id="b2AbdTnz96"></path></defs><g><g><g><use xlink:href="#jkrVVPQm7" opacity="1" fill="#ffffff" fill-opacity="1"></use></g><g><use xlink:href="#e1VSwPVdqm" opacity="1" fill="#000000" fill-opacity="0"></use><g><use xlink:href="#e1VSwPVdqm" opacity="1" fill-opacity="0" stroke="#000000" stroke-width="4" stroke-opacity="1"></use></g></g><g><use xlink:href="#c9fEfG3iRS" opacity="1" fill="#000000" fill-opacity="0"></use><g><use xlink:href="#c9fEfG3iRS" opacity="1" fill-opacity="0" stroke="#000000" stroke-width="4" stroke-opacity="1"></use></g></g><g><use xlink:href="#aczpZKeo7" opacity="1" fill="#000000" fill-opacity="0"></use><g><use xlink:href="#aczpZKeo7" opacity="1" fill-opacity="0" stroke="#000000" stroke-width="4" stroke-opacity="1"></use></g></g><g><use xlink:href="#c3FhUaXFtD" opacity="1" fill="#000000" fill-opacity="0"></use><g><use xlink:href="#c3FhUaXFtD" opacity="1" fill-opacity="0" stroke="#000000" stroke-width="4" stroke-opacity="1"></use></g></g><g><use xlink:href="#du3kHr23x" opacity="1" fill="#000000" fill-opacity="0"></use><g><use xlink:href="#du3kHr23x" opacity="1" fill-opacity="0" stroke="#000000" stroke-width="4" stroke-opacity="1"></use></g></g><g><use xlink:href="#b8q41em40X" opacity="1" fill="#000000" fill-opacity="0"></use><g><use xlink:href="#b8q41em40X" opacity="1" fill-opacity="0" stroke="#000000" stroke-width="4" stroke-opacity="1"></use></g></g><g><use xlink:href="#a1wlLdW9e6" opacity="1" fill="#000000" fill-opacity="0"></use><g><use xlink:href="#a1wlLdW9e6" opacity="1" fill-opacity="0" stroke="#000000" stroke-width="4" stroke-opacity="1"></use></g></g><g><use xlink:href="#aabFYA4x0" opacity="1" fill="#000000" fill-opacity="0"></use><g><use xlink:href="#aabFYA4x0" opacity="1" fill-opacity="0" stroke="#000000" stroke-width="4" stroke-opacity="1"></use></g></g><g><use xlink:href="#b1qAZ2lKPY" opacity="1" fill="#000000" fill-opacity="0"></use><g><use xlink:href="#b1qAZ2lKPY" opacity="1" fill-opacity="0" stroke="#000000" stroke-width="4" stroke-opacity="1"></use></g></g><g><use xlink:href="#b2AbdTnz96" opacity="1" fill="#000000" fill-opacity="0"></use><g><use xlink:href="#b2AbdTnz96" opacity="1" fill-opacity="0" stroke="#000000" stroke-width="4" stroke-opacity="1"></use></g></g></g></g></svg>