<?xml version="1.0" encoding="UTF-8" standalone="no"?>
<!DOCTYPE svg PUBLIC "-//W3C//DTD SVG 1.1//EN" "http://www.w3.org/Graphics/SVG/1.1/DTD/svg11.dtd">
<svg version="1.1" xmlns="http://www.w3.org/2000/svg" xmlns:xlink="http://www.w3.org/1999/xlink" preserveAspectRatio="xMidYMid meet" viewBox="0 0 640 640" width="640" height="640"><defs><path d="M306.03 381.82C298.35 386.83 276.55 389.77 256.63 389.59" id="b11mNO0ej5"></path><path d="M344.03 381.82C351.71 386.83 373.51 389.77 393.44 389.59" id="a14wYB8CPl"></path><path d="M-5.53 -10.51L655.48 -10.51L655.48 655.03L-5.53 655.03L-5.53 -10.51Z" id="a7HXMqO4p"></path><path d="M309.83 218.41L309.83 150L340.23 150L340.23 275.41L309.83 275.41L309.83 256.41" id="a2OiSaJQqb"></path><path d="M325.03 362.82C335.53 362.82 344.03 370.38 344.03 380.87C344.03 382.2 344.03 388.86 344.03 400.83L306.03 400.83L306.03 380.87C311.7 368.84 318.04 362.82 325.03 362.82Z" id="cGDRBP3oc"></path><path d="M268.48 457.37C272.94 461.82 272.94 469.04 268.48 473.49C264.03 477.95 256.81 477.95 252.36 473.49C247.91 469.04 247.91 461.82 252.36 457.37C256.81 452.92 264.03 452.92 268.48 457.37Z" id="dbJkmk6FE"></path><path d="M397.7 457.37C402.15 461.82 402.15 469.04 397.7 473.5C393.24 477.95 386.03 477.95 381.57 473.5C377.12 469.04 377.12 461.82 381.57 457.37C386.03 452.92 393.24 452.92 397.7 457.37Z" id="akjr0gKyh"></path><path d="M271.83 465.43L378.24 465.43" id="dlxF5HLTt"></path><path d="M267.37 454.69L306.03 397.03" id="aRlAq01fr"></path><path d="M382.69 454.69L344.03 397.03" id="ai9cRquvQ"></path><path d="M325.03 400.83L325.03 465.43" id="a2V8ce0Xx"></path><path d="M302.23 404.63L302.23 461.63" id="d18vUrhmBv"></path><path d="M347.83 404.63L347.83 465.43" id="g41k0xgpWH"></path><path d="M370.64 438.83L370.64 465.43" id="cKU0Q4CZm"></path><path d="M279.43 438.83L279.43 465.43" id="bdf0rUWKi"></path><path d="M305.72 327.14C305.72 327.14 306.27 347.64 301.78 350.61C287.67 359.95 234.97 362.69 223.06 350.61C211.15 338.53 223.82 317.46 238.31 306.87C253.95 295.44 290.37 294.31 301.78 306.87C305.84 311.35 304.93 323.09 305.72 327.14Z" id="a1m3U9vmI"></path><path d="M343.77 327.14C343.77 327.14 343.23 347.64 347.71 350.61C361.82 359.95 414.52 362.69 426.43 350.61C438.34 338.53 425.68 317.46 411.18 306.87C395.54 295.44 359.13 294.31 347.71 306.87C343.65 311.35 344.56 323.09 343.77 327.14Z" id="e49mSwxedB"></path><path d="M397.7 457.37L427.01 406.85" id="b4ERVTApbz"></path><path d="M244.88 216.25C261.26 198.53 284.32 186.47 309.83 182.79" id="j1NkJYjna"></path><path d="M225.74 245.87C227.26 242.29 228.97 238.81 230.87 235.46" id="g9zQhxAYA"></path><path d="M252.37 457.37L223.06 406.85" id="cmV8uW6fI"></path><path d="M431.82 457.67C458.05 454.03 491.88 442.01 496.9 439.4" id="e2iHQ23hv3"></path><path d="M219.48 457.67C193.25 454.03 158.19 441.73 153.16 439.11" id="cS0o4wRIm"></path><path d="M458.05 313.42C458.05 313.42 426.38 244.37 340.23 275.41" id="eDHklh3wB"></path><path d="M192.02 313.42C192.02 313.42 223.69 244.37 309.83 275.41" id="a1TMcboMcT"></path><path d="M309.83 158.48C243.58 166.09 192.02 222.35 192.02 290.61C192.02 292.13 192.02 299.74 192.02 313.42C170.05 384.89 157.84 424.59 155.4 432.53C148.63 450.71 146.53 468.92 159.24 475.53C196.42 494.88 282.82 499.64 325.01 499.64C367.21 499.64 453.6 494.88 490.78 475.53C503.49 468.92 501.36 450.71 494.59 432.53C492.14 424.59 479.91 384.89 457.89 313.42L458.05 294.53C457.95 292.18 457.9 290.88 457.89 290.61C457.89 222.35 406.46 166.09 340.23 158.48" id="k5KukN9FsV"></path></defs><g><g><g><use xlink:href="#b11mNO0ej5" opacity="1" fill="#ffffff" fill-opacity="0"></use><g><use xlink:href="#b11mNO0ej5" opacity="1" fill-opacity="0" stroke="#000000" stroke-width="4" stroke-opacity="1"></use></g></g><g><use xlink:href="#a14wYB8CPl" opacity="1" fill="#ffffff" fill-opacity="0"></use><g><use xlink:href="#a14wYB8CPl" opacity="1" fill-opacity="0" stroke="#000000" stroke-width="4" stroke-opacity="1"></use></g></g><g><use xlink:href="#a7HXMqO4p" opacity="1" fill="#ffffff" fill-opacity="1"></use></g><g><use xlink:href="#a2OiSaJQqb" opacity="1" fill="#ffffff" fill-opacity="0"></use><g><use xlink:href="#a2OiSaJQqb" opacity="1" fill-opacity="0" stroke="#000000" stroke-width="4" stroke-opacity="1"></use></g></g><g><use xlink:href="#cGDRBP3oc" opacity="1" fill="#ffffff" fill-opacity="0"></use><g><use xlink:href="#cGDRBP3oc" opacity="1" fill-opacity="0" stroke="#000000" stroke-width="4" stroke-opacity="1"></use></g></g><g><use xlink:href="#dbJkmk6FE" opacity="1" fill="#ffffff" fill-opacity="0"></use><g><use xlink:href="#dbJkmk6FE" opacity="1" fill-opacity="0" stroke="#000000" stroke-width="4" stroke-opacity="1"></use></g></g><g><use xlink:href="#akjr0gKyh" opacity="1" fill="#ffffff" fill-opacity="0"></use><g><use xlink:href="#akjr0gKyh" opacity="1" fill-opacity="0" stroke="#000000" stroke-width="4" stroke-opacity="1"></use></g></g><g><use xlink:href="#dlxF5HLTt" opacity="1" fill="#ffffff" fill-opacity="0"></use><g><use xlink:href="#dlxF5HLTt" opacity="1" fill-opacity="0" stroke="#000000" stroke-width="4" stroke-opacity="1"></use></g></g><g><use xlink:href="#aRlAq01fr" opacity="1" fill="#ffffff" fill-opacity="0"></use><g><use xlink:href="#aRlAq01fr" opacity="1" fill-opacity="0" stroke="#000000" stroke-width="4" stroke-opacity="1"></use></g></g><g><use xlink:href="#ai9cRquvQ" opacity="1" fill="#ffffff" fill-opacity="0"></use><g><use xlink:href="#ai9cRquvQ" opacity="1" fill-opacity="0" stroke="#000000" stroke-width="4" stroke-opacity="1"></use></g></g><g><use xlink:href="#a2V8ce0Xx" opacity="1" fill="#ffffff" fill-opacity="0"></use><g><use xlink:href="#a2V8ce0Xx" opacity="1" fill-opacity="0" stroke="#000000" stroke-width="4" stroke-opacity="1"></use></g></g><g><use xlink:href="#d18vUrhmBv" opacity="1" fill="#ffffff" fill-opacity="0"></use><g><use xlink:href="#d18vUrhmBv" opacity="1" fill-opacity="0" stroke="#000000" stroke-width="4" stroke-opacity="1"></use></g></g><g><use xlink:href="#g41k0xgpWH" opacity="1" fill="#ffffff" fill-opacity="0"></use><g><use xlink:href="#g41k0xgpWH" opacity="1" fill-opacity="0" stroke="#000000" stroke-width="4" stroke-opacity="1"></use></g></g><g><use xlink:href="#cKU0Q4CZm" opacity="1" fill="#ffffff" fill-opacity="0"></use><g><use xlink:href="#cKU0Q4CZm" opacity="1" fill-opacity="0" stroke="#000000" stroke-width="4" stroke-opacity="1"></use></g></g><g><use xlink:href="#bdf0rUWKi" opacity="1" fill="#ffffff" fill-opacity="0"></use><g><use xlink:href="#bdf0rUWKi" opacity="1" fill-opacity="0" stroke="#000000" stroke-width="4" stroke-opacity="1"></use></g></g><g><use xlink:href="#a1m3U9vmI" opacity="1" fill="#ffffff" fill-opacity="0"></use><g><use xlink:href="#a1m3U9vmI" opacity="1" fill-opacity="0" stroke="#000000" stroke-width="4" stroke-opacity="1"></use></g></g><g><use xlink:href="#e49mSwxedB" opacity="1" fill="#ffffff" fill-opacity="0"></use><g><use xlink:href="#e49mSwxedB" opacity="1" fill-opacity="0" stroke="#000000" stroke-width="4" stroke-opacity="1"></use></g></g><g><use xlink:href="#b4ERVTApbz" opacity="1" fill="#ffffff" fill-opacity="0"></use><g><use xlink:href="#b4ERVTApbz" opacity="1" fill-opacity="0" stroke="#000000" stroke-width="4" stroke-opacity="1"></use></g></g><g><use xlink:href="#j1NkJYjna" opacity="1" fill="#ffffff" fill-opacity="0"></use><g><use xlink:href="#j1NkJYjna" opacity="1" fill-opacity="0" stroke="#000000" stroke-width="4" stroke-opacity="1"></use></g></g><g><use xlink:href="#g9zQhxAYA" opacity="1" fill="#ffffff" fill-opacity="0"></use><g><use xlink:href="#g9zQhxAYA" opacity="1" fill-opacity="0" stroke="#000000" stroke-width="4" stroke-opacity="1"></use></g></g><g><use xlink:href="#cmV8uW6fI" opacity="1" fill="#ffffff" fill-opacity="0"></use><g><use xlink:href="#cmV8uW6fI" opacity="1" fill-opacity="0" stroke="#000000" stroke-width="4" stroke-opacity="1"></use></g></g><g><use xlink:href="#e2iHQ23hv3" opacity="1" fill="#ffffff" fill-opacity="0"></use><g><use xlink:href="#e2iHQ23hv3" opacity="1" fill-opacity="0" stroke="#000000" stroke-width="4" stroke-opacity="1"></use></g></g><g><use xlink:href="#cS0o4wRIm" opacity="1" fill="#ffffff" fill-opacity="0"></use><g><use xlink:href="#cS0o4wRIm" opacity="1" fill-opacity="0" stroke="#000000" stroke-width="4" stroke-opacity="1"></use></g></g><g><use xlink:href="#eDHklh3wB" opacity="1" fill="#ffffff" fill-opacity="0"></use><g><use xlink:href="#eDHklh3wB" opacity="1" fill-opacity="0" stroke="#000000" stroke-width="4" stroke-opacity="1"></use></g></g><g><use xlink:href="#a1TMcboMcT" opacity="1" fill="#ffffff" fill-opacity="0"></use><g><use xlink:href="#a1TMcboMcT" opacity="1" fill-opacity="0" stroke="#000000" stroke-width="4" stroke-opacity="1"></use></g></g><g><use xlink:href="#k5KukN9FsV" opacity="1" fill="#ffffff" fill-opacity="0"></use><g><use xlink:href="#k5KukN9FsV" opacity="1" fill-opacity="0" stroke="#000000" stroke-width="4" stroke-opacity="1"></use></g></g></g></g></svg>