<?xml version="1.0" encoding="UTF-8" standalone="no"?>
<!DOCTYPE svg PUBLIC "-//W3C//DTD SVG 1.1//EN" "http://www.w3.org/Graphics/SVG/1.1/DTD/svg11.dtd">
<svg version="1.1" xmlns="http://www.w3.org/2000/svg" xmlns:xlink="http://www.w3.org/1999/xlink" preserveAspectRatio="xMidYMid meet" viewBox="0 0 640 640" width="640" height="640"><defs><path d="M-15.19 -10.56L653.33 -10.56L653.33 654.26L-15.19 654.26L-15.19 -10.56Z" id="c1Dyg5DEVD"></path><path d="M365.11 490C367.82 490 370.33 488.57 371.69 486.22C382.92 466.84 426.85 379.55 443.78 379.55C444.47 379.55 450.04 379.56 450.74 379.56C461.26 379.58 468.63 369.18 465.12 359.25C464.32 355.56 460.33 337.06 453.14 303.77C453.24 274.06 453.29 257.56 453.3 254.26C453.3 191.42 401.88 140 339.04 140C335.23 140 304.76 140 300.96 140C238.11 140 186.7 191.42 186.7 254.26C186.71 257.56 186.76 274.06 186.85 303.77C179.67 337.06 175.68 355.55 174.88 359.25C171.37 369.16 178.74 379.56 189.25 379.55C189.95 379.55 195.52 379.55 196.22 379.55C213.15 379.55 257.08 466.84 268.31 486.22C269.67 488.57 272.17 490 274.89 490C276.12 490 282.27 490 293.34 490C293.34 490 293.34 490 293.34 490C293.34 481.62 300.19 474.77 308.57 474.77C310.86 474.77 329.14 474.77 331.42 474.77C339.8 474.77 346.66 481.62 346.66 490C346.66 490 346.66 490 346.66 490C357.73 490 363.88 490 365.11 490Z" id="a90EPcvwP"></path><path d="M346.66 318.61C346.66 318.61 375.42 392.54 423.37 398.23" id="aBpPPesc4"></path><path d="M391.41 450.31L426.47 440.49L426.64 440.49L423.37 398.23" id="d6gaKBV7Z6"></path><path d="M248.97 451L213.39 440.49L213.36 440.49L216.62 398.23" id="a1gjyZc7d"></path><path d="M320 314.8C300.96 314.8 259.06 326.23 259.06 326.23C248.59 326.23 240.02 317.66 240.02 307.19C240.02 307.19 240.02 307.19 240.02 307.19C240.02 296.71 248.59 288.14 259.06 288.14C259.06 288.14 300.96 295.76 320 295.76C339.04 295.76 380.94 288.14 380.94 288.14C391.41 288.14 399.98 296.71 399.98 307.19C399.98 307.19 399.98 307.19 399.98 307.19C399.98 317.66 391.41 326.23 380.94 326.23C368.75 323.94 339.04 314.8 320 314.8Z" id="c1xrrnKjbH"></path><path d="M216.62 398.23C225.53 388.25 236.59 371.1 222.88 360.86C205.66 349.21 194.31 329.5 194.31 307.19C194.31 271.48 223.36 242.44 259.06 242.44C259.88 242.51 266.41 243.1 267.23 243.18C282.96 246.03 309.73 250.06 320 250.06C330.26 250.06 357.04 246.03 372.77 243.18C373.58 243.1 380.12 242.51 380.94 242.44C416.64 242.44 445.68 271.48 445.68 307.19C445.68 329.5 434.34 349.21 417.11 360.86C403.58 370.97 414.19 387.82 423.03 397.85" id="f1wcMvRIMC"></path><path d="M239.09 344.01C226.04 336.9 217.17 323.06 217.17 307.19C217.17 284.09 235.96 265.29 259.06 265.29C259.47 265.33 262.74 265.62 263.15 265.66C274.25 267.68 306.09 272.91 320 272.91C333.9 272.91 365.75 267.68 376.85 265.66C377.26 265.62 380.53 265.33 380.94 265.29C404.04 265.29 422.83 284.09 422.83 307.19C422.83 323.06 413.96 336.9 400.91 344.01" id="fAVo1ZGp"></path><path d="M291.43 318.61C291.43 318.61 263.96 391.71 216.62 398.23" id="eDulFrPeP"></path></defs><g><g><g><use xlink:href="#c1Dyg5DEVD" opacity="1" fill="#ffffff" fill-opacity="1"></use></g><g><use xlink:href="#a90EPcvwP" opacity="1" fill="#000000" fill-opacity="0"></use><g><use xlink:href="#a90EPcvwP" opacity="1" fill-opacity="0" stroke="#000000" stroke-width="4" stroke-opacity="1"></use></g></g><g><use xlink:href="#aBpPPesc4" opacity="1" fill="#000000" fill-opacity="0"></use><g><use xlink:href="#aBpPPesc4" opacity="1" fill-opacity="0" stroke="#000000" stroke-width="4" stroke-opacity="1"></use></g></g><g><use xlink:href="#d6gaKBV7Z6" opacity="1" fill="#000000" fill-opacity="0"></use><g><use xlink:href="#d6gaKBV7Z6" opacity="1" fill-opacity="0" stroke="#000000" stroke-width="4" stroke-opacity="1"></use></g></g><g><use xlink:href="#a1gjyZc7d" opacity="1" fill="#000000" fill-opacity="0"></use><g><use xlink:href="#a1gjyZc7d" opacity="1" fill-opacity="0" stroke="#000000" stroke-width="4" stroke-opacity="1"></use></g></g><g><use xlink:href="#c1xrrnKjbH" opacity="1" fill="#000000" fill-opacity="0"></use><g><use xlink:href="#c1xrrnKjbH" opacity="1" fill-opacity="0" stroke="#000000" stroke-width="4" stroke-opacity="1"></use></g></g><g><use xlink:href="#f1wcMvRIMC" opacity="1" fill="#000000" fill-opacity="0"></use><g><use xlink:href="#f1wcMvRIMC" opacity="1" fill-opacity="0" stroke="#000000" stroke-width="4" stroke-opacity="1"></use></g></g><g><use xlink:href="#fAVo1ZGp" opacity="1" fill="#000000" fill-opacity="0"></use><g><use xlink:href="#fAVo1ZGp" opacity="1" fill-opacity="0" stroke="#000000" stroke-width="4" stroke-opacity="1"></use></g></g><g><use xlink:href="#eDulFrPeP" opacity="1" fill="#000000" fill-opacity="0"></use><g><use xlink:href="#eDulFrPeP" opacity="1" fill-opacity="0" stroke="#000000" stroke-width="4" stroke-opacity="1"></use></g></g></g></g></svg>